# xmcd
#
# Track frame offsets:
#	150
#	16516
#	36259
#	53700
#	68831
#	89446
#	111152
#	127921
#	143624
#	160274
#
# Disc length: 2485 seconds
#
# Revision: 11
# Processed by: cddbd v1.5.2PL0 Copyright (c) Steve Scherf et al.
# Submitted via: Jack! The Knife 20 Magnifico
#
DISCID=7809b30a
DTITLE=Pooh - Poohlover
DYEAR=1976
DGENRE=Pop
TTITLE0=Il Primo Giorno Di Libertà
TTITLE1=Gitano
TTITLE2=Pierre
TTITLE3=Fare, Sfare, Dire, Indovinare
TTITLE4=Uno Straniero Venuto Dal Tempo
TTITLE5=Storia Di Una Lacrima
TTITLE6=Linda
TTITLE7=Tra La Stazione E Le Stelle
TTITLE8=Io Sono Il Vento E Quel Giorno Ero Là
TTITLE9=Padre Del Fuoco, Padre Del Tuono, Padre Del Nulla
EXTD=Pooh
EXTT0=Facchinetti, Negrini
EXTT1=Battaglia, Negrini
EXTT2=Facchinetti, Negrini
EXTT3=Facchinetti, Battaglia, D'Orazio
EXTT4=Facchinetti, Battaglia, Negrini
EXTT5=Facchinetti, D'Orazio
EXTT6=Facchinetti, Negrini
EXTT7=Facchinetti, Negrini
EXTT8=Facchinetti, Negrini
EXTT9=Facchinetti, Negrini
PLAYORDER=
